<svg xmlns="http://www.w3.org/2000/svg" xmlns:xlink="http://www.w3.org/1999/xlink" viewBox="0 0 7400 2400"><defs><style>.cls-1{fill:none;}.cls-2{isolation:isolate;}.cls-3{fill:#f8a73f;}.cls-4{fill:#8c7b73;}.cls-5{clip-path:url(#clip-path);}.cls-6{mix-blend-mode:luminosity;opacity:0.4;fill:url(#linear-gradient);}.cls-7{fill:#fff;}</style><clipPath id="clip-path"><rect id="Background" class="cls-1" x="600" y="600" width="1200" height="1200" rx="80"/></clipPath><linearGradient id="linear-gradient" x1="553.83" y1="706.8" x2="1908.97" y2="1741.13" gradientUnits="userSpaceOnUse"><stop offset="0.01" stop-color="#fff"/><stop offset="1"/></linearGradient></defs><g class="cls-2"><g id="Layer_2" data-name="Layer 2"><g id="Logo"><g id="Zone"><rect class="cls-3" width="7400" height="2400"/></g><g id="Icon"><rect id="Background-2" data-name="Background" class="cls-4" x="600" y="600" width="1200" height="1200" rx="80"/><g id="Shadow"><g class="cls-5"><path id="Shadow-2" data-name="Shadow" class="cls-6" d="M1800,1800H600V600H1800Z"/></g></g><path id="Drop" class="cls-7" d="M1200,720c-60,200-280,400-280,600,0,180,120,280,280,280s280-100,280-280C1480,1120,1260,920,1200,720Z"/></g><path id="Sweatless_Paths" data-name="Sweatless Paths" class="cls-7" d="M2828,859l-76,89c-48-39-96-58-152-58-57,0-93,24-93,68s26,62,134,96c131,42,206,96,206,224,0,129-102,219-275,219-120,0-206-44-263-99l83-91c51,43,106,68,175,68,68,0,110-32,110-85,0-51-26-74-127-105-155-48-212-112-212-215,0-122,106-200,250-200C2694,770,2767,801,2828,859Zm658,621H3297l-71-390-70,390H2969L2856,949h160l55,413,83-413h154l73,413,64-413h151Zm627-219H3785c10,95,55,121,120,121,43,0,81-15,127-47l65,88c-53,42-121,74-207,74-177,0-267-114-267-280,0-159,87-285,248-285,152,0,245,100,245,272C4116,1221,4115,1245,4113,1261Zm-152-102c-1-72-23-122-86-122-53,0-83,33-91,129h177Zm704,232-33,103c-62-5-103-24-128-76-38,58-97,79-160,79-106,0-173-69-173-166,0-116,88-179,249-179h54v-23c0-63-25-82-90-82-34,0-86,10-139,28l-36-104c67-25,140-39,200-39,154,0,220,65,220,188v206C4629,1367,4640,1382,4665,1391Zm-191-57v-95h-39c-72,0-107,25-107,78,0,42,23,67,62,67C4426,1384,4455,1365,4474,1334Zm614,121c-40,28-96,42-144,42-117-1-174-67-174-192V1059h-75V949h75V834l158-18V949h122l-17,110H4928v244c0,51,17,69,50,69,18,0,36-5,57-18Zm48-110V738l158-17v618c0,22,8,33,27,33,11,0,19-2,26-5l31,112c-24,10-58,18-96,18C5190,1497,5136,1442,5136,1345Zm752-84H5560c10,95,55,121,120,121,43,0,81-15,127-47l65,88c-53,42-121,74-207,74-177,0-267-114-267-280,0-159,87-285,248-285,152,0,245,100,245,272C5891,1221,5890,1245,5888,1261Zm-152-102c-1-72-23-122-86-122-53,0-83,33-91,129h177Zm628-162-58,89c-41-26-85-41-131-41-43,0-64,16-64,40,0,28,14,40,109,68,105,30,164,74,164,169,0,110-104,175-236,175-92,0-170-32-222-79l77-86c40,31,89,52,141,52,48,0,77-18,77-50,0-36-16-47-112-74-105-30-157-84-157-166,0-91,83-162,217-162C6246,932,6315,957,6364,997Zm483,0-58,89c-41-26-85-41-131-41-43,0-64,16-64,40,0,28,14,40,109,68,105,30,164,74,164,169,0,110-104,175-236,175-92,0-170-32-222-79l77-86c40,31,89,52,141,52,48,0,77-18,77-50,0-36-16-47-112-74-105-30-157-84-157-166,0-91,83-162,217-162C6728.94,932,6797.94,957,6846.94,997Z"/></g></g></g></svg>
