<svg xmlns="http://www.w3.org/2000/svg" xmlns:xlink="http://www.w3.org/1999/xlink" viewBox="0 0 6800 2400"><defs><style>.cls-1{fill:none;}.cls-2{isolation:isolate;}.cls-3{fill:#f8a73f;}.cls-4{fill:#8c7b73;}.cls-5{clip-path:url(#clip-path);}.cls-6{mix-blend-mode:luminosity;opacity:0.4;fill:url(#linear-gradient);}.cls-7{fill:#fff;}</style><clipPath id="clip-path"><rect id="Background" class="cls-1" x="600" y="600" width="1200" height="1200" rx="80"/></clipPath><linearGradient id="linear-gradient" x1="553.83" y1="706.8" x2="1908.97" y2="1741.13" gradientUnits="userSpaceOnUse"><stop offset="0.01" stop-color="#fff"/><stop offset="1"/></linearGradient></defs><g class="cls-2"><g id="Layer_2" data-name="Layer 2"><g id="Logo"><g id="Zone_Tagline" data-name="Zone Tagline"><rect class="cls-3" width="6800" height="2400"/></g><g id="Icon"><rect id="Background-2" data-name="Background" class="cls-4" x="600" y="600" width="1200" height="1200" rx="80"/><g id="Shadow"><g class="cls-5"><path id="Shadow-2" data-name="Shadow" class="cls-6" d="M1800,1800H600V600H1800Z"/></g></g><path id="Drop" class="cls-7" d="M1200,720c-60,200-280,400-280,600,0,180,120,280,280,280s280-100,280-280C1480,1120,1260,920,1200,720Z"/></g><path id="Sweatless_Tagline_Paths" data-name="Sweatless (Tagline) Paths" class="cls-7" d="M2775.2,741.1l-68.4,80.1c-43.2-35.1-86.4-52.2-136.8-52.2-51.3,0-83.7,21.6-83.7,61.2s23.4,55.8,120.6,86.4c117.9,37.8,185.4,86.4,185.4,201.6,0,116.1-91.8,197.1-247.5,197.1-108,0-185.4-39.6-236.7-89.1l74.7-81.9c45.9,38.7,95.4,61.2,157.5,61.2,61.2,0,99-28.8,99-76.5,0-45.9-23.4-66.6-114.3-94.5-139.5-43.2-190.8-100.8-190.8-193.5,0-109.8,95.4-180,225-180C2654.6,661,2720.3,688.9,2775.2,741.1ZM3367.4,1300H3197.3l-63.9-351-63,351H2902.1L2800.4,822.1h144l49.5,371.7,74.7-371.7h138.6l65.7,371.7,57.6-371.7h135.9Zm564.3-197.1H3636.5c9,85.5,49.5,108.9,108,108.9,38.7,0,72.9-13.5,114.3-42.3l58.5,79.2c-47.7,37.8-108.9,66.6-186.3,66.6-159.3,0-240.3-102.6-240.3-252,0-143.1,78.3-256.5,223.2-256.5,136.8,0,220.5,90,220.5,244.8C3934.4,1066.9,3933.5,1088.5,3931.7,1102.9Zm-136.8-91.8c-.9-64.8-20.7-109.8-77.4-109.8-47.7,0-74.7,29.7-81.9,116.1h159.3Zm633.58,208.8-29.7,92.7c-55.8-4.5-92.7-21.6-115.2-68.4-34.19,52.2-87.29,71.1-144,71.1-95.4,0-155.7-62.1-155.7-149.4,0-104.4,79.2-161.1,224.1-161.1h48.6V984.1c0-56.7-22.5-73.8-81-73.8-30.6,0-77.4,9-125.1,25.2l-32.4-93.6c60.3-22.5,126-35.1,180-35.1,138.59,0,198,58.5,198,169.2v185.4C4396.08,1198.3,4406,1211.8,4428.48,1219.9Zm-171.89-51.3v-85.5h-35.1c-64.8,0-96.3,22.5-96.3,70.2,0,37.8,20.7,60.3,55.8,60.3C4213.39,1213.6,4239.49,1196.5,4256.59,1168.6Zm552.59,108.9c-36,25.2-86.4,37.8-129.6,37.8-105.3-.9-156.6-60.3-156.6-172.8V921.1h-67.5v-99H4523V718.6l142.2-16.2V822.1H4775l-15.3,99h-94.5v219.6c0,45.9,15.3,62.1,45,62.1,16.2,0,32.4-4.5,51.3-16.2Zm43.19-99V632.2l142.19-15.3v556.2c0,19.8,7.2,29.7,24.3,29.7a56.94,56.94,0,0,0,23.4-4.5l27.9,100.8c-21.6,9-52.2,16.2-86.4,16.2C4901,1315.3,4852.37,1265.8,4852.37,1178.5Zm676.79-75.6H5234c9,85.5,49.5,108.9,108,108.9,38.7,0,72.89-13.5,114.29-42.3l58.5,79.2c-47.7,37.8-108.9,66.6-186.29,66.6-159.3,0-240.3-102.6-240.3-252,0-143.1,78.3-256.5,223.2-256.5,136.79,0,220.49,90,220.49,244.8C5531.86,1066.9,5531,1088.5,5529.16,1102.9Zm-136.8-91.8c-.9-64.8-20.69-109.8-77.39-109.8-47.7,0-74.7,29.7-81.9,116.1h159.29Zm565.19-145.8-52.2,80.1c-36.9-23.4-76.5-36.9-117.9-36.9-38.7,0-57.6,14.4-57.6,36,0,25.2,12.6,36,98.1,61.2,94.5,27,147.6,66.6,147.6,152.1,0,99-93.6,157.5-212.4,157.5-82.8,0-153-28.8-199.8-71.1l69.3-77.4c36,27.9,80.1,46.8,126.9,46.8,43.2,0,69.3-16.2,69.3-45,0-32.4-14.4-42.3-100.8-66.6-94.5-27-141.3-75.6-141.3-149.4,0-81.9,74.7-145.8,195.3-145.8C5851.35,806.8,5913.45,829.3,5957.55,865.3Zm434.69,0L6340,945.4c-36.9-23.4-76.5-36.9-117.9-36.9-38.7,0-57.6,14.4-57.6,36,0,25.2,12.6,36,98.1,61.2,94.5,27,147.6,66.6,147.6,152.1,0,99-93.6,157.5-212.4,157.5-82.8,0-153-28.8-199.8-71.1l69.3-77.4c36,27.9,80.1,46.8,126.9,46.8,43.2,0,69.3-16.2,69.3-45,0-32.4-14.4-42.3-100.8-66.6-94.5-27-141.3-75.6-141.3-149.4,0-81.9,74.7-145.8,195.3-145.8C6286,806.8,6348.14,829.3,6392.24,865.3Z"/><path id="Tagline_Paths" data-name="Tagline Paths" class="cls-4" d="M2488.1,1695c0,83.4-49.8,105-105.3,105h-66.6V1591.5h62.4C2435,1591.5,2488.1,1609.2,2488.1,1695Zm-116.4-63.9v129.3h14.4c28.5,0,44.7-14.1,44.7-65.4,0-51.9-17.4-63.9-45-63.9Zm197.4-47.7c0,16.5-12.6,29.4-30.6,29.4s-30.6-12.9-30.6-29.4,12.6-29.4,30.6-29.4S2569.1,1566.9,2569.1,1583.4Zm-3.9,216.6h-53.4V1640.1h53.4Zm183.9-149.7c-10.8,4.5-25.5,6.9-45.9,6.9,20.7,8.4,30.6,20.1,30.6,41.4,0,30.6-26.4,53.1-69,53.1a82.85,82.85,0,0,1-17.7-1.5,9.24,9.24,0,0,0-4.5,7.5c0,3.9,1.8,8.7,16.8,8.7h23.4c38.7,0,63,19.5,63,46.8,0,33.3-29.7,54-86.1,54-63,0-78.6-21-78.6-52.2h47.7c0,12.9,5.4,17.7,32.4,17.7,25.8,0,30.9-7.5,30.9-15.6,0-7.5-5.4-13.8-19.8-13.8h-22.8c-36.9,0-51.6-14.4-51.6-31.8,0-12.3,8.1-24.3,19.8-31.2-21.3-11.4-29.4-25.8-29.4-46.2,0-37.5,29.1-59.4,72.6-59.4,34.5,1.2,56.4-10.2,76.2-22.8Zm-107.7,42.6c0,16.5,8.7,24.6,21.3,24.6,13.8,0,21-8.4,21-25.2,0-15.9-6.9-22.8-21.3-22.8C2649.8,1669.5,2641.4,1677.9,2641.4,1692.9ZM2822,1583.4c0,16.5-12.6,29.4-30.6,29.4s-30.6-12.9-30.6-29.4,12.6-29.4,30.6-29.4S2822,1566.9,2822,1583.4Zm-3.9,216.6h-53.4V1640.1h53.4Zm137.4-7.8c-12.9,9-30.9,13.2-45.6,13.2-37.8,0-55.5-21.3-55.5-61.2v-67.5h-20.7v-36.6h20.7v-33.9l53.4-6.3v40.2h36.3l-5.4,36.6h-30.9v66.9c0,15,5.1,19.8,13.8,19.8a31.65,31.65,0,0,0,16.2-4.5ZM3110,1770l-10.8,34.5c-19.8-1.5-32.7-7.2-41.1-22.5-11.4,17.4-29.4,23.4-48,23.4-31.8,0-52.2-20.7-52.2-50.1,0-35.1,26.7-54.6,75.9-54.6h13.8v-5.4c0-17.4-6.6-22.2-24.9-22.2-9.9,0-25.8,3-41.7,8.4l-11.7-34.5c19.8-8.1,43.5-12.3,61.5-12.3,48.6,0,69,19.5,69,57.9v58.2C3099.79,1762.8,3102.79,1767.3,3110,1770Zm-62.4-14.7v-26.1h-9c-19.2,0-28.2,6.9-28.2,21,0,10.8,5.7,17.7,15.9,17.7C3035.29,1767.9,3042.79,1762.8,3047.59,1755.3Zm83.1,1.2V1577.1l53.4-5.4v183c0,5.7,2.4,8.7,7.8,8.7a21.92,21.92,0,0,0,6.9-1.2l9.9,37.8c-7.5,3.3-18.3,5.4-30.9,5.4C3147.79,1805.4,3130.69,1788,3130.69,1756.5Zm306.6-142.8-24.9,29.4c-14.4-11.4-28.81-17.1-45.31-17.1-16.2,0-25.2,6.3-25.2,17.7,0,12,7.81,16.2,39,26.4,41.1,12.9,61.8,30.6,61.8,68.4,0,39.3-31.8,66.9-85.21,66.9-38.1,0-64.2-13.8-81.3-30.3l27.6-30.6c15,12.9,31.5,20.7,51.6,20.7,19.2,0,29.7-9,29.7-22.5,0-13.8-7.19-19.8-36-28.5-48.6-15.3-64.2-35.4-64.2-66,0-38.1,33.3-62.1,78-62.1C3395.29,1586.1,3418.69,1596,3437.29,1613.7Zm182.09,105.9c0,49.5-24.9,85.8-63.6,85.8-15.6,0-28.5-5.1-38.1-16.2v72.6l-53.4,5.4V1640.1h47.4l2.1,16.8c13.5-16.5,30.9-22.2,44.7-22.2C3600.48,1634.7,3619.38,1667.4,3619.38,1719.6Zm-55.2.6c0-39-9-46.8-23.1-46.8-8.7,0-16.8,5.4-23.4,16.8v64.2c6,8.7,12.3,12.6,21,12.6C3554,1767,3564.18,1754.4,3564.18,1720.2Zm231.6,0c0,51.6-30.3,85.2-80.1,85.2-49.5,0-80.1-30.9-80.1-85.5,0-51.6,30.3-85.2,80.1-85.2C3765.18,1634.7,3795.78,1665.6,3795.78,1720.2Zm-105.3-.3c0,33.6,8.1,46.8,25.2,46.8s25.2-14.1,25.2-46.5c0-33.3-8.1-46.8-25.2-46.8S3690.48,1687.5,3690.48,1719.9Zm236.4-81.9-8.7,51.6a46.75,46.75,0,0,0-14.4-2.4c-19.2,0-26.7,14.4-31.5,36.6V1800h-53.4V1640.1h46.5l4.5,30.3c6.9-21.3,22.8-35.1,40.8-35.1A49.61,49.61,0,0,1,3926.88,1638Zm126.29,154.2c-12.9,9-30.9,13.2-45.6,13.2-37.8,0-55.5-21.3-55.5-61.2v-67.5h-20.7v-36.6h20.7v-33.9l53.4-6.3v40.2h36.3l-5.4,36.6h-30.9v66.9c0,15,5.1,19.8,13.8,19.8a31.65,31.65,0,0,0,16.2-4.5Zm132-137.4-19.2,29.4c-12-7.5-25.5-12-38.7-12-11.4,0-16.5,3.9-16.5,9.6,0,6.9,3,9.9,32.4,18.9,30.9,9,48,22.2,48,51,0,33-31.2,53.7-73.2,53.7-27.9,0-52.5-9.6-68.4-24.3l25.5-28.5c11.7,9,26.4,15.6,41.4,15.6,12.6,0,20.1-4.2,20.1-12.6,0-9.3-4.2-11.4-32.4-19.8-30.6-9-46.5-25.8-46.5-50.7,0-28.2,24.6-50.4,67.5-50.4C4148.57,1634.7,4170.47,1642.5,4185.17,1654.8Zm260.1,75.3c0,42.3-27.6,75.3-84,75.3-56.7,0-84-30.6-84-75.3V1591.5h55.5v136.8c0,24.6,8.1,36.6,28.5,36.6,20.1,0,28.2-12,28.2-36.6V1591.5h55.8ZM4580,1792.2c-12.9,9-30.9,13.2-45.6,13.2-37.8,0-55.5-21.3-55.5-61.2v-67.5h-20.7v-36.6h20.7v-33.9l53.4-6.3v40.2h36.3l-5.4,36.6h-30.9v66.9c0,15,5.1,19.8,13.8,19.8a31.65,31.65,0,0,0,16.2-4.5Zm69-208.8c0,16.5-12.6,29.4-30.6,29.4s-30.6-12.9-30.6-29.4,12.6-29.4,30.6-29.4S4649,1566.9,4649,1583.4Zm-3.9,216.6h-53.4V1640.1h53.4Zm29.7-43.5V1577.1l53.4-5.4v183c0,5.7,2.4,8.7,7.8,8.7a21.92,21.92,0,0,0,6.9-1.2l9.9,37.8c-7.5,3.3-18.3,5.4-30.9,5.4C4691.86,1805.4,4674.76,1788,4674.76,1756.5Zm148.5-173.1c0,16.5-12.6,29.4-30.6,29.4s-30.6-12.9-30.6-29.4,12.6-29.4,30.6-29.4S4823.26,1566.9,4823.26,1583.4Zm-3.9,216.6H4766V1640.1h53.4Zm137.4-7.8c-12.9,9-30.9,13.2-45.6,13.2-37.8,0-55.5-21.3-55.5-61.2v-67.5H4835v-36.6h20.7v-33.9l53.4-6.3v40.2h36.3l-5.4,36.6h-30.9v66.9c0,15,5.1,19.8,13.8,19.8a31.65,31.65,0,0,0,16.2-4.5Zm69-208.8c0,16.5-12.6,29.4-30.6,29.4s-30.6-12.9-30.6-29.4,12.6-29.4,30.6-29.4S5025.76,1566.9,5025.76,1583.4Zm-3.9,216.6h-53.4V1640.1h53.4Zm175.2-64.5H5099c3.3,25.8,15.6,31.8,34.21,31.8,12.3,0,23.4-4.5,37.2-14.1l21.6,29.4a99.18,99.18,0,0,1-63.9,22.8c-56.11,0-83.11-35.1-83.11-84.6,0-47.4,26.1-86.1,77.11-86.1,46.5,0,75.9,30,75.9,82.8C5198,1722.6,5197.36,1730.1,5197.06,1735.5Zm-51.6-33c-.3-19.2-5.4-33.3-22.5-33.3-14.11,0-21.91,8.7-24,35.1h46.51Zm194.7-47.7-19.2,29.4c-12-7.5-25.5-12-38.71-12-11.4,0-16.5,3.9-16.5,9.6,0,6.9,3,9.9,32.4,18.9,30.91,9,48,22.2,48,51,0,33-31.2,53.7-73.21,53.7-27.9,0-52.5-9.6-68.4-24.3l25.5-28.5c11.7,9,26.4,15.6,41.4,15.6,12.6,0,20.1-4.2,20.1-12.6,0-9.3-4.2-11.4-32.4-19.8-30.6-9-46.5-25.8-46.5-50.7,0-28.2,24.6-50.4,67.5-50.4C5303.55,1634.7,5325.46,1642.5,5340.16,1654.8Z"/></g></g></g></svg>
